<svg width="712" height="204" viewBox="0 0 712 204" fill="none" xmlns="http://www.w3.org/2000/svg">
<rect width="712" height="204" fill="#F7F2FA"/>
<g filter="url(#filter0_dd_105_2222)">
<rect x="66" y="71" width="56" height="56" rx="16" fill="#EADDFF"/>
</g>
<path fill-rule="evenodd" clip-rule="evenodd" d="M101.06 90.59L102.41 91.94C103.2 92.72 103.2 93.99 102.41 94.77L89.18 108H85V103.82L95.4 93.41L98.23 90.59C99.01 89.81 100.28 89.81 101.06 90.59ZM87 106L88.41 106.06L98.23 96.23L96.82 94.82L87 104.64V106Z" fill="#21005D"/>
<g filter="url(#filter1_dd_105_2222)">
<rect x="456" y="57" width="199" height="84" rx="24" fill="#EADDFF"/>
<path fill-rule="evenodd" clip-rule="evenodd" d="M508.59 86.385L510.615 88.41C511.8 89.58 511.8 91.485 510.615 92.655L490.77 112.5H484.5V106.23L500.1 90.615L504.345 86.385C505.515 85.215 507.42 85.215 508.59 86.385ZM487.5 109.5L489.615 109.59L504.345 94.845L502.23 92.73L487.5 107.46V109.5Z" fill="#21005D"/>
<path d="M544.525 101.14H547.089C547.007 102.117 546.733 102.989 546.268 103.754C545.803 104.513 545.151 105.111 544.31 105.549C543.469 105.986 542.447 106.205 541.244 106.205C540.321 106.205 539.49 106.041 538.752 105.713C538.014 105.378 537.382 104.906 536.855 104.298C536.329 103.683 535.925 102.941 535.645 102.073C535.372 101.205 535.235 100.234 535.235 99.1606V97.9199C535.235 96.8467 535.375 95.876 535.655 95.0078C535.943 94.1396 536.353 93.3979 536.886 92.7827C537.419 92.1606 538.058 91.6855 538.803 91.3574C539.555 91.0293 540.4 90.8652 541.336 90.8652C542.526 90.8652 543.53 91.084 544.351 91.5215C545.171 91.959 545.807 92.564 546.258 93.3364C546.716 94.1089 546.996 94.9941 547.099 95.9922H544.535C544.467 95.3496 544.317 94.7993 544.084 94.3413C543.859 93.8833 543.524 93.5347 543.079 93.2954C542.635 93.0493 542.054 92.9263 541.336 92.9263C540.748 92.9263 540.236 93.0356 539.798 93.2544C539.361 93.4731 538.995 93.7944 538.701 94.2183C538.407 94.6421 538.185 95.165 538.034 95.7871C537.891 96.4023 537.819 97.1064 537.819 97.8994V99.1606C537.819 99.9126 537.884 100.596 538.014 101.211C538.151 101.82 538.356 102.343 538.629 102.78C538.909 103.218 539.265 103.556 539.696 103.795C540.126 104.035 540.642 104.154 541.244 104.154C541.975 104.154 542.567 104.038 543.018 103.806C543.476 103.573 543.821 103.235 544.053 102.791C544.293 102.339 544.45 101.789 544.525 101.14ZM548.859 100.576V100.34C548.859 99.54 548.975 98.7983 549.207 98.1147C549.44 97.4243 549.775 96.8262 550.212 96.3203C550.657 95.8076 551.197 95.4111 551.832 95.1309C552.475 94.8438 553.2 94.7002 554.006 94.7002C554.82 94.7002 555.544 94.8438 556.18 95.1309C556.823 95.4111 557.366 95.8076 557.81 96.3203C558.255 96.8262 558.593 97.4243 558.825 98.1147C559.058 98.7983 559.174 99.54 559.174 100.34V100.576C559.174 101.375 559.058 102.117 558.825 102.801C558.593 103.484 558.255 104.083 557.81 104.595C557.366 105.101 556.826 105.498 556.19 105.785C555.554 106.065 554.833 106.205 554.027 106.205C553.213 106.205 552.485 106.065 551.843 105.785C551.207 105.498 550.667 105.101 550.222 104.595C549.778 104.083 549.44 103.484 549.207 102.801C548.975 102.117 548.859 101.375 548.859 100.576ZM551.33 100.34V100.576C551.33 101.075 551.381 101.546 551.484 101.991C551.586 102.435 551.747 102.825 551.966 103.16C552.184 103.495 552.465 103.758 552.806 103.949C553.148 104.141 553.555 104.236 554.027 104.236C554.485 104.236 554.881 104.141 555.216 103.949C555.558 103.758 555.838 103.495 556.057 103.16C556.276 102.825 556.436 102.435 556.539 101.991C556.648 101.546 556.703 101.075 556.703 100.576V100.34C556.703 99.8477 556.648 99.3828 556.539 98.9453C556.436 98.501 556.272 98.1079 556.047 97.7661C555.828 97.4243 555.548 97.1577 555.206 96.9663C554.871 96.7681 554.471 96.6689 554.006 96.6689C553.541 96.6689 553.138 96.7681 552.796 96.9663C552.461 97.1577 552.184 97.4243 551.966 97.7661C551.747 98.1079 551.586 98.501 551.484 98.9453C551.381 99.3828 551.33 99.8477 551.33 100.34ZM563.867 97.1611V106H561.395V94.9053H563.723L563.867 97.1611ZM563.467 100.042L562.626 100.032C562.626 99.2666 562.722 98.5591 562.913 97.9097C563.104 97.2603 563.385 96.6963 563.754 96.2178C564.123 95.7324 564.581 95.3599 565.128 95.1001C565.682 94.8335 566.321 94.7002 567.045 94.7002C567.551 94.7002 568.013 94.7754 568.43 94.9258C568.853 95.0693 569.219 95.2983 569.527 95.6128C569.841 95.9272 570.08 96.3306 570.245 96.8228C570.415 97.3149 570.501 97.9097 570.501 98.6069V106H568.03V98.8223C568.03 98.2822 567.948 97.8584 567.784 97.5508C567.626 97.2432 567.397 97.0244 567.097 96.8945C566.803 96.7578 566.451 96.6895 566.04 96.6895C565.576 96.6895 565.179 96.7783 564.851 96.9561C564.53 97.1338 564.267 97.3765 564.061 97.6841C563.856 97.9917 563.706 98.3472 563.61 98.7505C563.515 99.1538 563.467 99.5845 563.467 100.042ZM570.347 99.3862L569.188 99.6426C569.188 98.9727 569.281 98.3403 569.465 97.7456C569.657 97.144 569.933 96.6177 570.296 96.1665C570.665 95.7085 571.12 95.3496 571.66 95.0898C572.2 94.8301 572.818 94.7002 573.516 94.7002C574.083 94.7002 574.589 94.7788 575.033 94.936C575.484 95.0864 575.867 95.3257 576.182 95.6538C576.496 95.9819 576.735 96.4092 576.899 96.9355C577.063 97.4551 577.145 98.084 577.145 98.8223V106H574.664V98.812C574.664 98.2515 574.582 97.8174 574.418 97.5098C574.261 97.2021 574.035 96.9902 573.741 96.874C573.447 96.751 573.095 96.6895 572.685 96.6895C572.302 96.6895 571.964 96.7612 571.67 96.9048C571.383 97.0415 571.14 97.2363 570.942 97.4893C570.744 97.7354 570.593 98.019 570.491 98.3403C570.395 98.6616 570.347 99.0103 570.347 99.3862ZM582.32 97.0381V110.266H579.849V94.9053H582.125L582.32 97.0381ZM589.549 100.35V100.565C589.549 101.372 589.453 102.121 589.262 102.811C589.077 103.495 588.8 104.093 588.431 104.605C588.069 105.111 587.621 105.504 587.088 105.785C586.555 106.065 585.939 106.205 585.242 106.205C584.552 106.205 583.947 106.079 583.427 105.826C582.915 105.566 582.48 105.2 582.125 104.729C581.77 104.257 581.482 103.703 581.264 103.067C581.052 102.425 580.901 101.721 580.812 100.955V100.125C580.901 99.311 581.052 98.5728 581.264 97.9097C581.482 97.2466 581.77 96.6758 582.125 96.1973C582.48 95.7188 582.915 95.3496 583.427 95.0898C583.94 94.8301 584.538 94.7002 585.222 94.7002C585.919 94.7002 586.538 94.8369 587.078 95.1104C587.618 95.377 588.072 95.7598 588.441 96.2588C588.811 96.751 589.087 97.3457 589.272 98.043C589.457 98.7334 589.549 99.5024 589.549 100.35ZM587.078 100.565V100.35C587.078 99.8374 587.03 99.3623 586.934 98.9248C586.838 98.4805 586.688 98.0908 586.483 97.7559C586.278 97.4209 586.015 97.1611 585.693 96.9766C585.379 96.7852 585 96.6895 584.555 96.6895C584.118 96.6895 583.742 96.7646 583.427 96.915C583.113 97.0586 582.85 97.2603 582.638 97.52C582.426 97.7798 582.262 98.084 582.146 98.4326C582.029 98.7744 581.947 99.147 581.899 99.5503V101.54C581.981 102.032 582.122 102.483 582.32 102.893C582.518 103.303 582.798 103.631 583.161 103.877C583.53 104.117 584.001 104.236 584.576 104.236C585.02 104.236 585.399 104.141 585.714 103.949C586.028 103.758 586.285 103.495 586.483 103.16C586.688 102.818 586.838 102.425 586.934 101.98C587.03 101.536 587.078 101.064 587.078 100.565ZM591.329 100.576V100.34C591.329 99.54 591.445 98.7983 591.678 98.1147C591.91 97.4243 592.245 96.8262 592.683 96.3203C593.127 95.8076 593.667 95.4111 594.303 95.1309C594.945 94.8438 595.67 94.7002 596.477 94.7002C597.29 94.7002 598.015 94.8438 598.65 95.1309C599.293 95.4111 599.837 95.8076 600.281 96.3203C600.725 96.8262 601.064 97.4243 601.296 98.1147C601.528 98.7983 601.645 99.54 601.645 100.34V100.576C601.645 101.375 601.528 102.117 601.296 102.801C601.064 103.484 600.725 104.083 600.281 104.595C599.837 105.101 599.296 105.498 598.661 105.785C598.025 106.065 597.304 106.205 596.497 106.205C595.684 106.205 594.956 106.065 594.313 105.785C593.677 105.498 593.137 105.101 592.693 104.595C592.249 104.083 591.91 103.484 591.678 102.801C591.445 102.117 591.329 101.375 591.329 100.576ZM593.8 100.34V100.576C593.8 101.075 593.852 101.546 593.954 101.991C594.057 102.435 594.217 102.825 594.436 103.16C594.655 103.495 594.935 103.758 595.277 103.949C595.619 104.141 596.025 104.236 596.497 104.236C596.955 104.236 597.352 104.141 597.687 103.949C598.028 103.758 598.309 103.495 598.527 103.16C598.746 102.825 598.907 102.435 599.009 101.991C599.119 101.546 599.173 101.075 599.173 100.576V100.34C599.173 99.8477 599.119 99.3828 599.009 98.9453C598.907 98.501 598.743 98.1079 598.517 97.7661C598.298 97.4243 598.018 97.1577 597.676 96.9663C597.341 96.7681 596.942 96.6689 596.477 96.6689C596.012 96.6689 595.608 96.7681 595.267 96.9663C594.932 97.1577 594.655 97.4243 594.436 97.7661C594.217 98.1079 594.057 98.501 593.954 98.9453C593.852 99.3828 593.8 99.8477 593.8 100.34ZM610.09 102.996C610.09 102.75 610.029 102.527 609.905 102.329C609.782 102.124 609.547 101.939 609.198 101.775C608.856 101.611 608.35 101.461 607.68 101.324C607.092 101.194 606.552 101.041 606.06 100.863C605.575 100.678 605.158 100.456 604.809 100.196C604.461 99.9365 604.191 99.6289 603.999 99.2734C603.808 98.918 603.712 98.5078 603.712 98.043C603.712 97.5918 603.811 97.1646 604.009 96.7612C604.208 96.3579 604.491 96.0024 604.861 95.6948C605.23 95.3872 605.677 95.1445 606.204 94.9668C606.737 94.7891 607.332 94.7002 607.988 94.7002C608.918 94.7002 609.714 94.8574 610.377 95.1719C611.047 95.4795 611.56 95.8999 611.915 96.4331C612.271 96.9595 612.448 97.5542 612.448 98.2173H609.977C609.977 97.9233 609.902 97.6499 609.752 97.397C609.608 97.1372 609.389 96.9287 609.095 96.7715C608.801 96.6074 608.432 96.5254 607.988 96.5254C607.564 96.5254 607.212 96.5938 606.932 96.7305C606.658 96.8604 606.453 97.0312 606.317 97.2432C606.187 97.4551 606.122 97.6875 606.122 97.9404C606.122 98.125 606.156 98.2925 606.224 98.4429C606.3 98.5864 606.423 98.7197 606.593 98.8428C606.764 98.959 606.997 99.0684 607.291 99.1709C607.592 99.2734 607.967 99.3726 608.419 99.4683C609.266 99.646 609.994 99.875 610.603 100.155C611.218 100.429 611.69 100.784 612.018 101.222C612.346 101.652 612.51 102.199 612.51 102.862C612.51 103.354 612.404 103.806 612.192 104.216C611.987 104.619 611.686 104.971 611.29 105.272C610.893 105.566 610.418 105.795 609.864 105.959C609.318 106.123 608.702 106.205 608.019 106.205C607.014 106.205 606.163 106.027 605.466 105.672C604.768 105.31 604.238 104.848 603.876 104.288C603.521 103.72 603.343 103.132 603.343 102.524H605.732C605.759 102.982 605.886 103.348 606.112 103.621C606.344 103.888 606.631 104.083 606.973 104.206C607.321 104.322 607.68 104.38 608.05 104.38C608.494 104.38 608.866 104.322 609.167 104.206C609.468 104.083 609.697 103.918 609.854 103.713C610.011 103.501 610.09 103.262 610.09 102.996ZM619.715 106.205C618.894 106.205 618.153 106.072 617.49 105.805C616.833 105.532 616.273 105.152 615.808 104.667C615.35 104.182 614.998 103.611 614.752 102.955C614.506 102.298 614.383 101.591 614.383 100.832V100.422C614.383 99.5537 614.509 98.7676 614.762 98.0635C615.015 97.3594 615.367 96.7578 615.818 96.2588C616.269 95.7529 616.803 95.3667 617.418 95.1001C618.033 94.8335 618.7 94.7002 619.417 94.7002C620.21 94.7002 620.904 94.8335 621.499 95.1001C622.094 95.3667 622.586 95.7427 622.975 96.228C623.372 96.7065 623.666 97.2773 623.857 97.9404C624.055 98.6035 624.155 99.335 624.155 100.135V101.191H615.582V99.417H621.714V99.2222C621.7 98.7778 621.612 98.3608 621.448 97.9712C621.29 97.5815 621.048 97.2671 620.72 97.0278C620.391 96.7886 619.954 96.6689 619.407 96.6689C618.997 96.6689 618.631 96.7578 618.31 96.9355C617.995 97.1064 617.732 97.356 617.52 97.6841C617.308 98.0122 617.144 98.4087 617.028 98.8735C616.919 99.3315 616.864 99.8477 616.864 100.422V100.832C616.864 101.317 616.929 101.769 617.059 102.186C617.196 102.596 617.394 102.955 617.654 103.262C617.913 103.57 618.228 103.812 618.597 103.99C618.966 104.161 619.387 104.247 619.858 104.247C620.453 104.247 620.983 104.127 621.448 103.888C621.912 103.648 622.316 103.31 622.658 102.873L623.96 104.134C623.721 104.482 623.409 104.817 623.027 105.139C622.644 105.453 622.176 105.709 621.622 105.908C621.075 106.106 620.439 106.205 619.715 106.205Z" fill="#21005D"/>
</g>
<g filter="url(#filter2_dd_105_2222)">
<rect x="306" y="51" width="96" height="96" rx="28" fill="#EADDFF"/>
</g>
<path fill-rule="evenodd" clip-rule="evenodd" d="M364.59 86.385L366.615 88.41C367.8 89.58 367.8 91.485 366.615 92.655L346.77 112.5H340.5V106.23L356.1 90.615L360.345 86.385C361.515 85.215 363.42 85.215 364.59 86.385ZM343.5 109.5L345.615 109.59L360.345 94.845L358.23 92.73L343.5 107.46V109.5Z" fill="#21005D"/>
<g filter="url(#filter3_dd_105_2222)">
<rect x="194" y="79" width="40" height="40" rx="12" fill="#EADDFF"/>
</g>
<path fill-rule="evenodd" clip-rule="evenodd" d="M221.06 90.59L222.41 91.94C223.2 92.72 223.2 93.99 222.41 94.77L209.18 108H205V103.82L215.4 93.41L218.23 90.59C219.01 89.81 220.28 89.81 221.06 90.59ZM207 106L208.41 106.06L218.23 96.23L216.82 94.82L207 104.64V106Z" fill="#21005D"/>
<defs>
<filter id="filter0_dd_105_2222" x="55" y="64" width="78" height="78" filterUnits="userSpaceOnUse" color-interpolation-filters="sRGB">
<feFlood flood-opacity="0" result="BackgroundImageFix"/>
<feColorMatrix in="SourceAlpha" type="matrix" values="0 0 0 0 0 0 0 0 0 0 0 0 0 0 0 0 0 0 127 0" result="hardAlpha"/>
<feOffset dy="1"/>
<feGaussianBlur stdDeviation="1.5"/>
<feColorMatrix type="matrix" values="0 0 0 0 0.235294 0 0 0 0 0.25098 0 0 0 0 0.262745 0 0 0 0.3 0"/>
<feBlend mode="normal" in2="BackgroundImageFix" result="effect1_dropShadow_105_2222"/>
<feColorMatrix in="SourceAlpha" type="matrix" values="0 0 0 0 0 0 0 0 0 0 0 0 0 0 0 0 0 0 127 0" result="hardAlpha"/>
<feMorphology radius="3" operator="dilate" in="SourceAlpha" result="effect2_dropShadow_105_2222"/>
<feOffset dy="4"/>
<feGaussianBlur stdDeviation="4"/>
<feColorMatrix type="matrix" values="0 0 0 0 0.235294 0 0 0 0 0.25098 0 0 0 0 0.262745 0 0 0 0.15 0"/>
<feBlend mode="normal" in2="effect1_dropShadow_105_2222" result="effect2_dropShadow_105_2222"/>
<feBlend mode="normal" in="SourceGraphic" in2="effect2_dropShadow_105_2222" result="shape"/>
</filter>
<filter id="filter1_dd_105_2222" x="445" y="50" width="221" height="106" filterUnits="userSpaceOnUse" color-interpolation-filters="sRGB">
<feFlood flood-opacity="0" result="BackgroundImageFix"/>
<feColorMatrix in="SourceAlpha" type="matrix" values="0 0 0 0 0 0 0 0 0 0 0 0 0 0 0 0 0 0 127 0" result="hardAlpha"/>
<feOffset dy="1"/>
<feGaussianBlur stdDeviation="1.5"/>
<feColorMatrix type="matrix" values="0 0 0 0 0.235294 0 0 0 0 0.25098 0 0 0 0 0.262745 0 0 0 0.3 0"/>
<feBlend mode="normal" in2="BackgroundImageFix" result="effect1_dropShadow_105_2222"/>
<feColorMatrix in="SourceAlpha" type="matrix" values="0 0 0 0 0 0 0 0 0 0 0 0 0 0 0 0 0 0 127 0" result="hardAlpha"/>
<feMorphology radius="3" operator="dilate" in="SourceAlpha" result="effect2_dropShadow_105_2222"/>
<feOffset dy="4"/>
<feGaussianBlur stdDeviation="4"/>
<feColorMatrix type="matrix" values="0 0 0 0 0.235294 0 0 0 0 0.25098 0 0 0 0 0.262745 0 0 0 0.15 0"/>
<feBlend mode="normal" in2="effect1_dropShadow_105_2222" result="effect2_dropShadow_105_2222"/>
<feBlend mode="normal" in="SourceGraphic" in2="effect2_dropShadow_105_2222" result="shape"/>
</filter>
<filter id="filter2_dd_105_2222" x="295" y="44" width="118" height="118" filterUnits="userSpaceOnUse" color-interpolation-filters="sRGB">
<feFlood flood-opacity="0" result="BackgroundImageFix"/>
<feColorMatrix in="SourceAlpha" type="matrix" values="0 0 0 0 0 0 0 0 0 0 0 0 0 0 0 0 0 0 127 0" result="hardAlpha"/>
<feOffset dy="1"/>
<feGaussianBlur stdDeviation="1.5"/>
<feColorMatrix type="matrix" values="0 0 0 0 0.235294 0 0 0 0 0.25098 0 0 0 0 0.262745 0 0 0 0.3 0"/>
<feBlend mode="normal" in2="BackgroundImageFix" result="effect1_dropShadow_105_2222"/>
<feColorMatrix in="SourceAlpha" type="matrix" values="0 0 0 0 0 0 0 0 0 0 0 0 0 0 0 0 0 0 127 0" result="hardAlpha"/>
<feMorphology radius="3" operator="dilate" in="SourceAlpha" result="effect2_dropShadow_105_2222"/>
<feOffset dy="4"/>
<feGaussianBlur stdDeviation="4"/>
<feColorMatrix type="matrix" values="0 0 0 0 0.235294 0 0 0 0 0.25098 0 0 0 0 0.262745 0 0 0 0.15 0"/>
<feBlend mode="normal" in2="effect1_dropShadow_105_2222" result="effect2_dropShadow_105_2222"/>
<feBlend mode="normal" in="SourceGraphic" in2="effect2_dropShadow_105_2222" result="shape"/>
</filter>
<filter id="filter3_dd_105_2222" x="183" y="72" width="62" height="62" filterUnits="userSpaceOnUse" color-interpolation-filters="sRGB">
<feFlood flood-opacity="0" result="BackgroundImageFix"/>
<feColorMatrix in="SourceAlpha" type="matrix" values="0 0 0 0 0 0 0 0 0 0 0 0 0 0 0 0 0 0 127 0" result="hardAlpha"/>
<feOffset dy="1"/>
<feGaussianBlur stdDeviation="1.5"/>
<feColorMatrix type="matrix" values="0 0 0 0 0.235294 0 0 0 0 0.25098 0 0 0 0 0.262745 0 0 0 0.3 0"/>
<feBlend mode="normal" in2="BackgroundImageFix" result="effect1_dropShadow_105_2222"/>
<feColorMatrix in="SourceAlpha" type="matrix" values="0 0 0 0 0 0 0 0 0 0 0 0 0 0 0 0 0 0 127 0" result="hardAlpha"/>
<feMorphology radius="3" operator="dilate" in="SourceAlpha" result="effect2_dropShadow_105_2222"/>
<feOffset dy="4"/>
<feGaussianBlur stdDeviation="4"/>
<feColorMatrix type="matrix" values="0 0 0 0 0.235294 0 0 0 0 0.25098 0 0 0 0 0.262745 0 0 0 0.15 0"/>
<feBlend mode="normal" in2="effect1_dropShadow_105_2222" result="effect2_dropShadow_105_2222"/>
<feBlend mode="normal" in="SourceGraphic" in2="effect2_dropShadow_105_2222" result="shape"/>
</filter>
</defs>
</svg>
