<svg width="742" height="146" viewBox="0 0 742 146" fill="none" xmlns="http://www.w3.org/2000/svg">
<rect width="742" height="146" fill="#F7F2FA"/>
<g filter="url(#filter0_dd_106_2259)">
<rect x="456" y="53" width="103" height="40" rx="20" fill="#FFFBFE"/>
<rect x="456" y="53" width="103" height="40" rx="20" fill="#6750A4" fill-opacity="0.11"/>
<path d="M487.959 76.6396V78H482.675V76.6396H487.959ZM483.161 68.0469V78H481.445V68.0469H483.161ZM487.269 72.2031V73.543H482.675V72.2031H487.269ZM487.925 68.0469V69.4141H482.675V68.0469H487.925ZM491.06 67.5V78H489.406V67.5H491.06ZM496.226 78.1367C495.679 78.1367 495.184 78.0479 494.742 77.8701C494.305 77.6878 493.931 77.4349 493.621 77.1113C493.316 76.7878 493.081 76.4072 492.917 75.9697C492.753 75.5322 492.671 75.0605 492.671 74.5547V74.2812C492.671 73.7025 492.755 73.1784 492.924 72.709C493.093 72.2396 493.327 71.8385 493.628 71.5059C493.929 71.1686 494.284 70.9111 494.695 70.7334C495.105 70.5557 495.549 70.4668 496.028 70.4668C496.556 70.4668 497.019 70.5557 497.415 70.7334C497.812 70.9111 498.14 71.1618 498.4 71.4854C498.664 71.8044 498.86 72.1849 498.988 72.627C499.12 73.069 499.186 73.5566 499.186 74.0898V74.7939H493.471V73.6113H497.559V73.4814C497.55 73.1852 497.49 72.9072 497.381 72.6475C497.276 72.3877 497.114 72.1781 496.896 72.0186C496.677 71.859 496.385 71.7793 496.021 71.7793C495.747 71.7793 495.503 71.8385 495.289 71.957C495.08 72.071 494.904 72.2373 494.763 72.4561C494.622 72.6748 494.512 72.9391 494.435 73.249C494.362 73.5544 494.325 73.8984 494.325 74.2812V74.5547C494.325 74.8783 494.369 75.179 494.455 75.457C494.546 75.7305 494.679 75.9697 494.852 76.1748C495.025 76.3799 495.235 76.5417 495.481 76.6602C495.727 76.7741 496.007 76.8311 496.321 76.8311C496.718 76.8311 497.071 76.7513 497.381 76.5918C497.691 76.4323 497.96 76.2067 498.188 75.915L499.056 76.7559C498.896 76.9883 498.689 77.2116 498.434 77.4258C498.179 77.6354 497.866 77.8063 497.497 77.9385C497.133 78.0706 496.709 78.1367 496.226 78.1367ZM502.881 76.6943L504.693 70.6035H506.402L503.832 78H502.765L502.881 76.6943ZM501.494 70.6035L503.339 76.7217L503.428 78H502.362L499.778 70.6035H501.494ZM511.581 76.5166V72.9893C511.581 72.7249 511.533 72.4971 511.438 72.3057C511.342 72.1143 511.196 71.9661 511 71.8613C510.809 71.7565 510.567 71.7041 510.275 71.7041C510.007 71.7041 509.774 71.7497 509.578 71.8408C509.382 71.932 509.229 72.055 509.12 72.21C509.011 72.3649 508.956 72.5404 508.956 72.7363H507.315C507.315 72.4447 507.386 72.1621 507.527 71.8887C507.669 71.6152 507.874 71.3714 508.143 71.1572C508.411 70.943 508.733 70.7744 509.106 70.6514C509.48 70.5283 509.899 70.4668 510.364 70.4668C510.92 70.4668 511.412 70.5602 511.841 70.7471C512.274 70.9339 512.613 71.2165 512.859 71.5947C513.11 71.9684 513.235 72.4378 513.235 73.0029V76.291C513.235 76.6283 513.258 76.9313 513.304 77.2002C513.354 77.4645 513.424 77.6947 513.516 77.8906V78H511.827C511.75 77.8223 511.688 77.5967 511.643 77.3232C511.602 77.0452 511.581 76.7764 511.581 76.5166ZM511.82 73.502L511.834 74.5205H510.651C510.346 74.5205 510.077 74.5501 509.845 74.6094C509.612 74.6641 509.419 74.7461 509.264 74.8555C509.109 74.9648 508.993 75.097 508.915 75.252C508.838 75.4069 508.799 75.5824 508.799 75.7783C508.799 75.9743 508.844 76.1543 508.936 76.3184C509.027 76.4779 509.159 76.6032 509.332 76.6943C509.51 76.7855 509.724 76.8311 509.975 76.8311C510.312 76.8311 510.606 76.7627 510.856 76.626C511.112 76.4847 511.312 76.3138 511.458 76.1133C511.604 75.9082 511.681 75.7145 511.69 75.5322L512.224 76.2637C512.169 76.4505 512.076 76.651 511.943 76.8652C511.811 77.0794 511.638 77.2845 511.424 77.4805C511.214 77.6719 510.961 77.8291 510.665 77.9521C510.373 78.0752 510.036 78.1367 509.653 78.1367C509.17 78.1367 508.74 78.041 508.361 77.8496C507.983 77.6536 507.687 77.3916 507.473 77.0635C507.258 76.7308 507.151 76.3548 507.151 75.9355C507.151 75.5436 507.224 75.1973 507.37 74.8965C507.521 74.5911 507.739 74.3359 508.026 74.1309C508.318 73.9258 508.674 73.7708 509.093 73.666C509.512 73.5566 509.991 73.502 510.528 73.502H511.82ZM518.449 70.6035V71.8066H514.279V70.6035H518.449ZM515.482 68.792H517.129V75.9561C517.129 76.1839 517.161 76.3594 517.225 76.4824C517.293 76.6009 517.387 76.6807 517.505 76.7217C517.624 76.7627 517.763 76.7832 517.922 76.7832C518.036 76.7832 518.146 76.7764 518.25 76.7627C518.355 76.749 518.44 76.7354 518.503 76.7217L518.51 77.9795C518.373 78.0205 518.214 78.057 518.032 78.0889C517.854 78.1208 517.649 78.1367 517.416 78.1367C517.038 78.1367 516.703 78.0706 516.412 77.9385C516.12 77.8018 515.892 77.5807 515.728 77.2754C515.564 76.9701 515.482 76.5645 515.482 76.0586V68.792ZM523.081 78.1367C522.534 78.1367 522.04 78.0479 521.597 77.8701C521.16 77.6878 520.786 77.4349 520.476 77.1113C520.171 76.7878 519.936 76.4072 519.772 75.9697C519.608 75.5322 519.526 75.0605 519.526 74.5547V74.2812C519.526 73.7025 519.61 73.1784 519.779 72.709C519.948 72.2396 520.182 71.8385 520.483 71.5059C520.784 71.1686 521.139 70.9111 521.55 70.7334C521.96 70.5557 522.404 70.4668 522.883 70.4668C523.411 70.4668 523.874 70.5557 524.27 70.7334C524.667 70.9111 524.995 71.1618 525.255 71.4854C525.519 71.8044 525.715 72.1849 525.843 72.627C525.975 73.069 526.041 73.5566 526.041 74.0898V74.7939H520.326V73.6113H524.414V73.4814C524.405 73.1852 524.346 72.9072 524.236 72.6475C524.131 72.3877 523.97 72.1781 523.751 72.0186C523.532 71.859 523.24 71.7793 522.876 71.7793C522.602 71.7793 522.359 71.8385 522.144 71.957C521.935 72.071 521.759 72.2373 521.618 72.4561C521.477 72.6748 521.367 72.9391 521.29 73.249C521.217 73.5544 521.18 73.8984 521.18 74.2812V74.5547C521.18 74.8783 521.224 75.179 521.31 75.457C521.401 75.7305 521.534 75.9697 521.707 76.1748C521.88 76.3799 522.09 76.5417 522.336 76.6602C522.582 76.7741 522.862 76.8311 523.177 76.8311C523.573 76.8311 523.926 76.7513 524.236 76.5918C524.546 76.4323 524.815 76.2067 525.043 75.915L525.911 76.7559C525.751 76.9883 525.544 77.2116 525.289 77.4258C525.034 77.6354 524.721 77.8063 524.352 77.9385C523.988 78.0706 523.564 78.1367 523.081 78.1367ZM531.938 76.4688V67.5H533.592V78H532.095L531.938 76.4688ZM527.125 74.3838V74.2402C527.125 73.6797 527.191 73.1693 527.323 72.709C527.456 72.2441 527.647 71.8454 527.898 71.5127C528.148 71.1755 528.454 70.918 528.814 70.7402C529.174 70.5579 529.579 70.4668 530.03 70.4668C530.477 70.4668 530.869 70.5534 531.206 70.7266C531.543 70.8997 531.831 71.1481 532.068 71.4717C532.305 71.7907 532.494 72.1735 532.635 72.6201C532.776 73.0622 532.877 73.5544 532.936 74.0967V74.5547C532.877 75.0833 532.776 75.5664 532.635 76.0039C532.494 76.4414 532.305 76.8197 532.068 77.1387C531.831 77.4577 531.541 77.7038 531.199 77.877C530.862 78.0501 530.468 78.1367 530.017 78.1367C529.57 78.1367 529.167 78.0433 528.807 77.8564C528.451 77.6696 528.148 77.4076 527.898 77.0703C527.647 76.7331 527.456 76.3366 527.323 75.8809C527.191 75.4206 527.125 74.9215 527.125 74.3838ZM528.773 74.2402V74.3838C528.773 74.721 528.802 75.0355 528.862 75.3271C528.925 75.6188 529.023 75.8763 529.155 76.0996C529.288 76.3184 529.459 76.4915 529.668 76.6191C529.882 76.7422 530.138 76.8037 530.434 76.8037C530.807 76.8037 531.115 76.7217 531.357 76.5576C531.598 76.3936 531.787 76.1725 531.924 75.8945C532.065 75.612 532.161 75.2975 532.211 74.9512V73.7139C532.184 73.445 532.127 73.1943 532.04 72.9619C531.958 72.7295 531.847 72.5267 531.705 72.3535C531.564 72.1758 531.389 72.0391 531.179 71.9434C530.974 71.8431 530.73 71.793 530.447 71.793C530.147 71.793 529.891 71.8568 529.682 71.9844C529.472 72.112 529.299 72.2874 529.162 72.5107C529.03 72.734 528.932 72.9938 528.868 73.29C528.805 73.5863 528.773 73.903 528.773 74.2402Z" fill="#6750A4"/>
</g>
<rect x="47" y="53" width="83" height="40" rx="20" fill="#6750A4"/>
<path d="M74.0223 68.0469V78H72.3064V68.0469H74.0223ZM78.0828 72.4014V73.7617H73.5848V72.4014H78.0828ZM78.6502 68.0469V69.4141H73.5848V68.0469H78.6502ZM81.717 70.6035V78H80.0627V70.6035H81.717ZM79.9533 68.6621C79.9533 68.4115 80.0354 68.2041 80.1994 68.04C80.368 67.8714 80.6005 67.7871 80.8967 67.7871C81.1883 67.7871 81.4185 67.8714 81.5871 68.04C81.7557 68.2041 81.84 68.4115 81.84 68.6621C81.84 68.9082 81.7557 69.1133 81.5871 69.2773C81.4185 69.4414 81.1883 69.5234 80.8967 69.5234C80.6005 69.5234 80.368 69.4414 80.1994 69.2773C80.0354 69.1133 79.9533 68.9082 79.9533 68.6621ZM85.3854 67.5V78H83.7311V67.5H85.3854ZM89.0537 67.5V78H87.3994V67.5H89.0537ZM94.2191 78.1367C93.6723 78.1367 93.1778 78.0479 92.7357 77.8701C92.2982 77.6878 91.9245 77.4349 91.6146 77.1113C91.3093 76.7878 91.0746 76.4072 90.9105 75.9697C90.7465 75.5322 90.6645 75.0605 90.6645 74.5547V74.2812C90.6645 73.7025 90.7488 73.1784 90.9174 72.709C91.086 72.2396 91.3207 71.8385 91.6215 71.5059C91.9223 71.1686 92.2777 70.9111 92.6879 70.7334C93.098 70.5557 93.5424 70.4668 94.0209 70.4668C94.5495 70.4668 95.0121 70.5557 95.4086 70.7334C95.8051 70.9111 96.1332 71.1618 96.393 71.4854C96.6573 71.8044 96.8533 72.1849 96.9809 72.627C97.113 73.069 97.1791 73.5566 97.1791 74.0898V74.7939H91.4643V73.6113H95.5521V73.4814C95.543 73.1852 95.4838 72.9072 95.3744 72.6475C95.2696 72.3877 95.1078 72.1781 94.8891 72.0186C94.6703 71.859 94.3786 71.7793 94.0141 71.7793C93.7406 71.7793 93.4968 71.8385 93.2826 71.957C93.073 72.071 92.8975 72.2373 92.7563 72.4561C92.615 72.6748 92.5056 72.9391 92.4281 73.249C92.3552 73.5544 92.3188 73.8984 92.3188 74.2812V74.5547C92.3188 74.8783 92.362 75.179 92.4486 75.457C92.5398 75.7305 92.6719 75.9697 92.8451 76.1748C93.0183 76.3799 93.2279 76.5417 93.474 76.6602C93.7201 76.7741 94.0004 76.8311 94.3148 76.8311C94.7113 76.8311 95.0645 76.7513 95.3744 76.5918C95.6843 76.4323 95.9532 76.2067 96.1811 75.915L97.0492 76.7559C96.8897 76.9883 96.6824 77.2116 96.4271 77.4258C96.1719 77.6354 95.8598 77.8063 95.4906 77.9385C95.126 78.0706 94.7022 78.1367 94.2191 78.1367ZM103.076 76.4688V67.5H104.73V78H103.233L103.076 76.4688ZM98.2635 74.3838V74.2402C98.2635 73.6797 98.3296 73.1693 98.4617 72.709C98.5939 72.2441 98.7853 71.8454 99.0359 71.5127C99.2866 71.1755 99.5919 70.918 99.952 70.7402C100.312 70.5579 100.718 70.4668 101.169 70.4668C101.615 70.4668 102.007 70.5534 102.345 70.7266C102.682 70.8997 102.969 71.1481 103.206 71.4717C103.443 71.7907 103.632 72.1735 103.773 72.6201C103.915 73.0622 104.015 73.5544 104.074 74.0967V74.5547C104.015 75.0833 103.915 75.5664 103.773 76.0039C103.632 76.4414 103.443 76.8197 103.206 77.1387C102.969 77.4577 102.679 77.7038 102.338 77.877C102 78.0501 101.606 78.1367 101.155 78.1367C100.708 78.1367 100.305 78.0433 99.9451 77.8564C99.5896 77.6696 99.2866 77.4076 99.0359 77.0703C98.7853 76.7331 98.5939 76.3366 98.4617 75.8809C98.3296 75.4206 98.2635 74.9215 98.2635 74.3838ZM99.9109 74.2402V74.3838C99.9109 74.721 99.9406 75.0355 99.9998 75.3271C100.064 75.6188 100.162 75.8763 100.294 76.0996C100.426 76.3184 100.597 76.4915 100.806 76.6191C101.021 76.7422 101.276 76.8037 101.572 76.8037C101.946 76.8037 102.253 76.7217 102.495 76.5576C102.736 76.3936 102.926 76.1725 103.062 75.8945C103.204 75.612 103.299 75.2975 103.349 74.9512V73.7139C103.322 73.445 103.265 73.1943 103.179 72.9619C103.096 72.7295 102.985 72.5267 102.844 72.3535C102.702 72.1758 102.527 72.0391 102.317 71.9434C102.112 71.8431 101.868 71.793 101.586 71.793C101.285 71.793 101.03 71.8568 100.82 71.9844C100.61 72.112 100.437 72.2874 100.301 72.5107C100.168 72.734 100.07 72.9938 100.007 73.29C99.9428 73.5863 99.9109 73.903 99.9109 74.2402Z" fill="white"/>
<rect x="183.5" y="53" width="87" height="40" rx="20" fill="#E8DEF8"/>
<path d="M216.273 68.0469V78H214.571V68.0469H216.273ZM219.397 68.0469V69.4141H211.474V68.0469H219.397ZM219.374 74.3838V74.2266C219.374 73.6934 219.451 73.1989 219.606 72.7432C219.761 72.2829 219.984 71.8841 220.276 71.5469C220.572 71.2051 220.932 70.9408 221.356 70.7539C221.784 70.5625 222.268 70.4668 222.805 70.4668C223.348 70.4668 223.831 70.5625 224.254 70.7539C224.683 70.9408 225.045 71.2051 225.341 71.5469C225.638 71.8841 225.863 72.2829 226.018 72.7432C226.173 73.1989 226.251 73.6934 226.251 74.2266V74.3838C226.251 74.917 226.173 75.4115 226.018 75.8672C225.863 76.3229 225.638 76.7217 225.341 77.0635C225.045 77.4007 224.685 77.665 224.261 77.8564C223.838 78.0433 223.357 78.1367 222.819 78.1367C222.277 78.1367 221.791 78.0433 221.363 77.8564C220.939 77.665 220.579 77.4007 220.283 77.0635C219.987 76.7217 219.761 76.3229 219.606 75.8672C219.451 75.4115 219.374 74.917 219.374 74.3838ZM221.021 74.2266V74.3838C221.021 74.7165 221.055 75.0309 221.124 75.3271C221.192 75.6234 221.299 75.8831 221.445 76.1064C221.591 76.3298 221.778 76.5052 222.005 76.6328C222.233 76.7604 222.504 76.8242 222.819 76.8242C223.124 76.8242 223.389 76.7604 223.612 76.6328C223.84 76.5052 224.027 76.3298 224.172 76.1064C224.318 75.8831 224.425 75.6234 224.494 75.3271C224.567 75.0309 224.603 74.7165 224.603 74.3838V74.2266C224.603 73.8984 224.567 73.5885 224.494 73.2969C224.425 73.0007 224.316 72.7386 224.166 72.5107C224.02 72.2829 223.833 72.1051 223.605 71.9775C223.382 71.8454 223.115 71.7793 222.805 71.7793C222.495 71.7793 222.226 71.8454 221.999 71.9775C221.775 72.1051 221.591 72.2829 221.445 72.5107C221.299 72.7386 221.192 73.0007 221.124 73.2969C221.055 73.5885 221.021 73.8984 221.021 74.2266ZM229.365 72.1826V78H227.718V70.6035H229.27L229.365 72.1826ZM229.071 74.0283L228.538 74.0215C228.543 73.4974 228.616 73.0166 228.757 72.5791C228.903 72.1416 229.103 71.7656 229.358 71.4512C229.618 71.1367 229.928 70.8952 230.288 70.7266C230.648 70.5534 231.049 70.4668 231.491 70.4668C231.847 70.4668 232.168 70.5169 232.455 70.6172C232.747 70.7129 232.995 70.8701 233.2 71.0889C233.41 71.3076 233.569 71.5924 233.679 71.9434C233.788 72.2897 233.843 72.7158 233.843 73.2217V78H232.188V73.2148C232.188 72.8594 232.136 72.5791 232.031 72.374C231.931 72.1644 231.783 72.0163 231.587 71.9297C231.396 71.8385 231.156 71.793 230.869 71.793C230.587 71.793 230.334 71.8522 230.11 71.9707C229.887 72.0892 229.698 72.251 229.543 72.4561C229.393 72.6611 229.276 72.8981 229.194 73.167C229.112 73.4359 229.071 73.723 229.071 74.0283ZM239.794 76.5166V72.9893C239.794 72.7249 239.746 72.4971 239.651 72.3057C239.555 72.1143 239.409 71.9661 239.213 71.8613C239.022 71.7565 238.78 71.7041 238.489 71.7041C238.22 71.7041 237.987 71.7497 237.791 71.8408C237.595 71.932 237.443 72.055 237.333 72.21C237.224 72.3649 237.169 72.5404 237.169 72.7363H235.529C235.529 72.4447 235.599 72.1621 235.741 71.8887C235.882 71.6152 236.087 71.3714 236.356 71.1572C236.625 70.943 236.946 70.7744 237.32 70.6514C237.693 70.5283 238.113 70.4668 238.578 70.4668C239.134 70.4668 239.626 70.5602 240.054 70.7471C240.487 70.9339 240.827 71.2165 241.073 71.5947C241.323 71.9684 241.449 72.4378 241.449 73.0029V76.291C241.449 76.6283 241.471 76.9313 241.517 77.2002C241.567 77.4645 241.638 77.6947 241.729 77.8906V78H240.04C239.963 77.8223 239.901 77.5967 239.856 77.3232C239.815 77.0452 239.794 76.7764 239.794 76.5166ZM240.034 73.502L240.047 74.5205H238.865C238.559 74.5205 238.29 74.5501 238.058 74.6094C237.826 74.6641 237.632 74.7461 237.477 74.8555C237.322 74.9648 237.206 75.097 237.128 75.252C237.051 75.4069 237.012 75.5824 237.012 75.7783C237.012 75.9743 237.058 76.1543 237.149 76.3184C237.24 76.4779 237.372 76.6032 237.545 76.6943C237.723 76.7855 237.937 76.8311 238.188 76.8311C238.525 76.8311 238.819 76.7627 239.07 76.626C239.325 76.4847 239.525 76.3138 239.671 76.1133C239.817 75.9082 239.895 75.7145 239.904 75.5322L240.437 76.2637C240.382 76.4505 240.289 76.651 240.157 76.8652C240.024 77.0794 239.851 77.2845 239.637 77.4805C239.427 77.6719 239.175 77.8291 238.878 77.9521C238.587 78.0752 238.249 78.1367 237.867 78.1367C237.384 78.1367 236.953 78.041 236.575 77.8496C236.196 77.6536 235.9 77.3916 235.686 77.0635C235.472 76.7308 235.365 76.3548 235.365 75.9355C235.365 75.5436 235.438 75.1973 235.583 74.8965C235.734 74.5911 235.953 74.3359 236.24 74.1309C236.531 73.9258 236.887 73.7708 237.306 73.666C237.725 73.5566 238.204 73.502 238.742 73.502H240.034ZM245.035 67.5V78H243.381V67.5H245.035Z" fill="#1D192B"/>
<rect x="320.5" y="53.5" width="101" height="39" rx="19.5" fill="#FFFBFE"/>
<path d="M353.332 72.75V73.2969C353.332 74.0488 353.234 74.7233 353.038 75.3203C352.843 75.9173 352.562 76.4255 352.198 76.8447C351.838 77.264 351.405 77.5853 350.899 77.8086C350.393 78.0273 349.832 78.1367 349.217 78.1367C348.607 78.1367 348.048 78.0273 347.542 77.8086C347.041 77.5853 346.606 77.264 346.237 76.8447C345.868 76.4255 345.58 75.9173 345.375 75.3203C345.175 74.7233 345.075 74.0488 345.075 73.2969V72.75C345.075 71.998 345.175 71.3258 345.375 70.7334C345.576 70.1364 345.858 69.6283 346.223 69.209C346.592 68.7852 347.027 68.4639 347.529 68.2451C348.035 68.0218 348.593 67.9102 349.204 67.9102C349.819 67.9102 350.379 68.0218 350.885 68.2451C351.391 68.4639 351.826 68.7852 352.191 69.209C352.555 69.6283 352.836 70.1364 353.032 70.7334C353.232 71.3258 353.332 71.998 353.332 72.75ZM351.617 73.2969V72.7363C351.617 72.1803 351.562 71.6904 351.453 71.2666C351.348 70.8382 351.19 70.4805 350.981 70.1934C350.776 69.9017 350.523 69.6829 350.222 69.5371C349.921 69.3867 349.582 69.3115 349.204 69.3115C348.825 69.3115 348.488 69.3867 348.192 69.5371C347.896 69.6829 347.643 69.9017 347.433 70.1934C347.228 70.4805 347.071 70.8382 346.961 71.2666C346.852 71.6904 346.797 72.1803 346.797 72.7363V73.2969C346.797 73.8529 346.852 74.3451 346.961 74.7734C347.071 75.2018 347.23 75.5641 347.44 75.8604C347.654 76.152 347.909 76.373 348.205 76.5234C348.502 76.6693 348.839 76.7422 349.217 76.7422C349.6 76.7422 349.94 76.6693 350.236 76.5234C350.532 76.373 350.783 76.152 350.988 75.8604C351.193 75.5641 351.348 75.2018 351.453 74.7734C351.562 74.3451 351.617 73.8529 351.617 73.2969ZM359.434 76.2568V70.6035H361.089V78H359.53L359.434 76.2568ZM359.667 74.7188L360.221 74.7051C360.221 75.2018 360.166 75.6598 360.056 76.0791C359.947 76.4938 359.778 76.8561 359.551 77.166C359.323 77.4714 359.031 77.7106 358.676 77.8838C358.32 78.0524 357.894 78.1367 357.397 78.1367C357.037 78.1367 356.707 78.0843 356.406 77.9795C356.105 77.8747 355.846 77.7129 355.627 77.4941C355.413 77.2754 355.246 76.9906 355.128 76.6396C355.009 76.2887 354.95 75.8695 354.95 75.3818V70.6035H356.597V75.3955C356.597 75.6644 356.629 75.89 356.693 76.0723C356.757 76.25 356.844 76.3936 356.953 76.5029C357.062 76.6123 357.19 76.6898 357.336 76.7354C357.482 76.7809 357.637 76.8037 357.801 76.8037C358.27 76.8037 358.639 76.7126 358.908 76.5303C359.181 76.3434 359.375 76.0928 359.489 75.7783C359.608 75.4639 359.667 75.1107 359.667 74.7188ZM366.268 70.6035V71.8066H362.098V70.6035H366.268ZM363.301 68.792H364.948V75.9561C364.948 76.1839 364.98 76.3594 365.044 76.4824C365.113 76.6009 365.206 76.6807 365.324 76.7217C365.443 76.7627 365.582 76.7832 365.741 76.7832C365.855 76.7832 365.965 76.7764 366.07 76.7627C366.174 76.749 366.259 76.7354 366.322 76.7217L366.329 77.9795C366.193 78.0205 366.033 78.057 365.851 78.0889C365.673 78.1208 365.468 78.1367 365.236 78.1367C364.857 78.1367 364.522 78.0706 364.231 77.9385C363.939 77.8018 363.711 77.5807 363.547 77.2754C363.383 76.9701 363.301 76.5645 363.301 76.0586V68.792ZM369.403 67.5V78H367.749V67.5H369.403ZM373.071 70.6035V78H371.417V70.6035H373.071ZM371.308 68.6621C371.308 68.4115 371.39 68.2041 371.554 68.04C371.722 67.8714 371.955 67.7871 372.251 67.7871C372.543 67.7871 372.773 67.8714 372.941 68.04C373.11 68.2041 373.194 68.4115 373.194 68.6621C373.194 68.9082 373.11 69.1133 372.941 69.2773C372.773 69.4414 372.543 69.5234 372.251 69.5234C371.955 69.5234 371.722 69.4414 371.554 69.2773C371.39 69.1133 371.308 68.9082 371.308 68.6621ZM376.61 72.1826V78H374.962V70.6035H376.514L376.61 72.1826ZM376.316 74.0283L375.783 74.0215C375.787 73.4974 375.86 73.0166 376.001 72.5791C376.147 72.1416 376.348 71.7656 376.603 71.4512C376.863 71.1367 377.173 70.8952 377.533 70.7266C377.893 70.5534 378.294 70.4668 378.736 70.4668C379.091 70.4668 379.413 70.5169 379.7 70.6172C379.991 70.7129 380.24 70.8701 380.445 71.0889C380.654 71.3076 380.814 71.5924 380.923 71.9434C381.033 72.2897 381.087 72.7158 381.087 73.2217V78H379.433V73.2148C379.433 72.8594 379.381 72.5791 379.276 72.374C379.176 72.1644 379.027 72.0163 378.831 71.9297C378.64 71.8385 378.401 71.793 378.114 71.793C377.831 71.793 377.578 71.8522 377.355 71.9707C377.132 72.0892 376.942 72.251 376.788 72.4561C376.637 72.6611 376.521 72.8981 376.439 73.167C376.357 73.4359 376.316 73.723 376.316 74.0283ZM386.13 78.1367C385.583 78.1367 385.088 78.0479 384.646 77.8701C384.209 77.6878 383.835 77.4349 383.525 77.1113C383.22 76.7878 382.985 76.4072 382.821 75.9697C382.657 75.5322 382.575 75.0605 382.575 74.5547V74.2812C382.575 73.7025 382.659 73.1784 382.828 72.709C382.997 72.2396 383.231 71.8385 383.532 71.5059C383.833 71.1686 384.188 70.9111 384.598 70.7334C385.009 70.5557 385.453 70.4668 385.931 70.4668C386.46 70.4668 386.923 70.5557 387.319 70.7334C387.716 70.9111 388.044 71.1618 388.304 71.4854C388.568 71.8044 388.764 72.1849 388.891 72.627C389.024 73.069 389.09 73.5566 389.09 74.0898V74.7939H383.375V73.6113H387.463V73.4814C387.454 73.1852 387.394 72.9072 387.285 72.6475C387.18 72.3877 387.018 72.1781 386.8 72.0186C386.581 71.859 386.289 71.7793 385.925 71.7793C385.651 71.7793 385.407 71.8385 385.193 71.957C384.984 72.071 384.808 72.2373 384.667 72.4561C384.526 72.6748 384.416 72.9391 384.339 73.249C384.266 73.5544 384.229 73.8984 384.229 74.2812V74.5547C384.229 74.8783 384.273 75.179 384.359 75.457C384.45 75.7305 384.582 75.9697 384.756 76.1748C384.929 76.3799 385.138 76.5417 385.385 76.6602C385.631 76.7741 385.911 76.8311 386.225 76.8311C386.622 76.8311 386.975 76.7513 387.285 76.5918C387.595 76.4323 387.864 76.2067 388.092 75.915L388.96 76.7559C388.8 76.9883 388.593 77.2116 388.338 77.4258C388.082 77.6354 387.77 77.8063 387.401 77.9385C387.037 78.0706 386.613 78.1367 386.13 78.1367ZM394.987 76.4688V67.5H396.641V78H395.144L394.987 76.4688ZM390.174 74.3838V74.2402C390.174 73.6797 390.24 73.1693 390.372 72.709C390.504 72.2441 390.696 71.8454 390.946 71.5127C391.197 71.1755 391.502 70.918 391.863 70.7402C392.223 70.5579 392.628 70.4668 393.079 70.4668C393.526 70.4668 393.918 70.5534 394.255 70.7266C394.592 70.8997 394.879 71.1481 395.116 71.4717C395.353 71.7907 395.543 72.1735 395.684 72.6201C395.825 73.0622 395.925 73.5544 395.985 74.0967V74.5547C395.925 75.0833 395.825 75.5664 395.684 76.0039C395.543 76.4414 395.353 76.8197 395.116 77.1387C394.879 77.4577 394.59 77.7038 394.248 77.877C393.911 78.0501 393.517 78.1367 393.066 78.1367C392.619 78.1367 392.216 78.0433 391.856 77.8564C391.5 77.6696 391.197 77.4076 390.946 77.0703C390.696 76.7331 390.504 76.3366 390.372 75.8809C390.24 75.4206 390.174 74.9215 390.174 74.3838ZM391.821 74.2402V74.3838C391.821 74.721 391.851 75.0355 391.91 75.3271C391.974 75.6188 392.072 75.8763 392.204 76.0996C392.336 76.3184 392.507 76.4915 392.717 76.6191C392.931 76.7422 393.186 76.8037 393.483 76.8037C393.856 76.8037 394.164 76.7217 394.405 76.5576C394.647 76.3936 394.836 76.1725 394.973 75.8945C395.114 75.612 395.21 75.2975 395.26 74.9512V73.7139C395.233 73.445 395.176 73.1943 395.089 72.9619C395.007 72.7295 394.895 72.5267 394.754 72.3535C394.613 72.1758 394.437 72.0391 394.228 71.9434C394.023 71.8431 393.779 71.793 393.496 71.793C393.196 71.793 392.94 71.8568 392.731 71.9844C392.521 72.112 392.348 72.2874 392.211 72.5107C392.079 72.734 391.981 72.9938 391.917 73.29C391.853 73.5863 391.821 73.903 391.821 74.2402Z" fill="#6750A4"/>
<rect x="320.5" y="53.5" width="101" height="39" rx="19.5" stroke="#79747E"/>
<path d="M629.539 68.0469V78H627.837V68.0469H629.539ZM632.663 68.0469V69.4141H624.74V68.0469H632.663ZM636.516 78.1367C635.969 78.1367 635.475 78.0479 635.033 77.8701C634.595 77.6878 634.221 77.4349 633.912 77.1113C633.606 76.7878 633.371 76.4072 633.207 75.9697C633.043 75.5322 632.961 75.0605 632.961 74.5547V74.2812C632.961 73.7025 633.046 73.1784 633.214 72.709C633.383 72.2396 633.618 71.8385 633.918 71.5059C634.219 71.1686 634.575 70.9111 634.985 70.7334C635.395 70.5557 635.839 70.4668 636.318 70.4668C636.846 70.4668 637.309 70.5557 637.705 70.7334C638.102 70.9111 638.43 71.1618 638.69 71.4854C638.954 71.8044 639.15 72.1849 639.278 72.627C639.41 73.069 639.476 73.5566 639.476 74.0898V74.7939H633.761V73.6113H637.849V73.4814C637.84 73.1852 637.781 72.9072 637.671 72.6475C637.566 72.3877 637.405 72.1781 637.186 72.0186C636.967 71.859 636.676 71.7793 636.311 71.7793C636.038 71.7793 635.794 71.8385 635.579 71.957C635.37 72.071 635.194 72.2373 635.053 72.4561C634.912 72.6748 634.802 72.9391 634.725 73.249C634.652 73.5544 634.616 73.8984 634.616 74.2812V74.5547C634.616 74.8783 634.659 75.179 634.746 75.457C634.837 75.7305 634.969 75.9697 635.142 76.1748C635.315 76.3799 635.525 76.5417 635.771 76.6602C636.017 76.7741 636.297 76.8311 636.612 76.8311C637.008 76.8311 637.361 76.7513 637.671 76.5918C637.981 76.4323 638.25 76.2067 638.478 75.915L639.346 76.7559C639.187 76.9883 638.979 77.2116 638.724 77.4258C638.469 77.6354 638.157 77.8063 637.788 77.9385C637.423 78.0706 636.999 78.1367 636.516 78.1367ZM642.119 70.6035L643.527 73.0576L644.963 70.6035H646.774L644.532 74.2334L646.863 78H645.052L643.548 75.4434L642.044 78H640.225L642.55 74.2334L640.314 70.6035H642.119ZM651.393 70.6035V71.8066H647.223V70.6035H651.393ZM648.426 68.792H650.073V75.9561C650.073 76.1839 650.105 76.3594 650.169 76.4824C650.237 76.6009 650.331 76.6807 650.449 76.7217C650.568 76.7627 650.707 76.7832 650.866 76.7832C650.98 76.7832 651.09 76.7764 651.195 76.7627C651.299 76.749 651.384 76.7354 651.447 76.7217L651.454 77.9795C651.318 78.0205 651.158 78.057 650.976 78.0889C650.798 78.1208 650.593 78.1367 650.361 78.1367C649.982 78.1367 649.647 78.0706 649.356 77.9385C649.064 77.8018 648.836 77.5807 648.672 77.2754C648.508 76.9701 648.426 76.5645 648.426 76.0586V68.792ZM656.357 67.5H658.005V76.4209L657.848 78H656.357V67.5ZM662.831 74.2334V74.377C662.831 74.9238 662.77 75.4274 662.646 75.8877C662.528 76.3434 662.346 76.7399 662.1 77.0771C661.858 77.4144 661.557 77.6764 661.197 77.8633C660.842 78.0456 660.429 78.1367 659.96 78.1367C659.5 78.1367 659.099 78.0501 658.757 77.877C658.415 77.7038 658.128 77.4577 657.896 77.1387C657.668 76.8197 657.483 76.4391 657.342 75.9971C657.201 75.555 657.1 75.0674 657.041 74.5342V74.0762C657.1 73.5384 657.201 73.0508 657.342 72.6133C657.483 72.1712 657.668 71.7907 657.896 71.4717C658.128 71.1481 658.413 70.8997 658.75 70.7266C659.092 70.5534 659.491 70.4668 659.946 70.4668C660.42 70.4668 660.837 70.5579 661.197 70.7402C661.562 70.9225 661.865 71.1823 662.106 71.5195C662.348 71.8522 662.528 72.2487 662.646 72.709C662.77 73.1693 662.831 73.6774 662.831 74.2334ZM661.184 74.377V74.2334C661.184 73.9007 661.156 73.5885 661.102 73.2969C661.047 73.0007 660.956 72.7409 660.828 72.5176C660.705 72.2943 660.536 72.1188 660.322 71.9912C660.113 71.859 659.851 71.793 659.536 71.793C659.244 71.793 658.994 71.8431 658.784 71.9434C658.575 72.0436 658.399 72.1803 658.258 72.3535C658.117 72.5267 658.005 72.7272 657.923 72.9551C657.845 73.1829 657.793 73.429 657.766 73.6934V74.9307C657.807 75.2725 657.893 75.5869 658.025 75.874C658.162 76.1566 658.354 76.3844 658.6 76.5576C658.846 76.7262 659.162 76.8105 659.55 76.8105C659.855 76.8105 660.113 76.749 660.322 76.626C660.532 76.5029 660.698 76.332 660.821 76.1133C660.949 75.89 661.04 75.6302 661.095 75.334C661.154 75.0378 661.184 74.7188 661.184 74.377ZM668.776 76.2568V70.6035H670.43V78H668.871L668.776 76.2568ZM669.008 74.7188L669.562 74.7051C669.562 75.2018 669.507 75.6598 669.398 76.0791C669.288 76.4938 669.12 76.8561 668.892 77.166C668.664 77.4714 668.372 77.7106 668.017 77.8838C667.662 78.0524 667.235 78.1367 666.739 78.1367C666.379 78.1367 666.048 78.0843 665.747 77.9795C665.447 77.8747 665.187 77.7129 664.968 77.4941C664.754 77.2754 664.588 76.9906 664.469 76.6396C664.351 76.2887 664.291 75.8695 664.291 75.3818V70.6035H665.939V75.3955C665.939 75.6644 665.971 75.89 666.035 76.0723C666.098 76.25 666.185 76.3936 666.294 76.5029C666.404 76.6123 666.531 76.6898 666.677 76.7354C666.823 76.7809 666.978 76.8037 667.142 76.8037C667.611 76.8037 667.981 76.7126 668.249 76.5303C668.523 76.3434 668.717 76.0928 668.83 75.7783C668.949 75.4639 669.008 75.1107 669.008 74.7188ZM675.609 70.6035V71.8066H671.439V70.6035H675.609ZM672.642 68.792H674.29V75.9561C674.29 76.1839 674.322 76.3594 674.386 76.4824C674.454 76.6009 674.547 76.6807 674.666 76.7217C674.784 76.7627 674.923 76.7832 675.083 76.7832C675.197 76.7832 675.306 76.7764 675.411 76.7627C675.516 76.749 675.6 76.7354 675.664 76.7217L675.671 77.9795C675.534 78.0205 675.374 78.057 675.192 78.0889C675.014 78.1208 674.809 78.1367 674.577 78.1367C674.199 78.1367 673.864 78.0706 673.572 77.9385C673.28 77.8018 673.053 77.5807 672.888 77.2754C672.724 76.9701 672.642 76.5645 672.642 76.0586V68.792ZM680.371 70.6035V71.8066H676.201V70.6035H680.371ZM677.404 68.792H679.052V75.9561C679.052 76.1839 679.084 76.3594 679.148 76.4824C679.216 76.6009 679.309 76.6807 679.428 76.7217C679.546 76.7627 679.685 76.7832 679.845 76.7832C679.959 76.7832 680.068 76.7764 680.173 76.7627C680.278 76.749 680.362 76.7354 680.426 76.7217L680.433 77.9795C680.296 78.0205 680.137 78.057 679.954 78.0889C679.777 78.1208 679.571 78.1367 679.339 78.1367C678.961 78.1367 678.626 78.0706 678.334 77.9385C678.043 77.8018 677.815 77.5807 677.651 77.2754C677.487 76.9701 677.404 76.5645 677.404 76.0586V68.792ZM681.264 74.3838V74.2266C681.264 73.6934 681.342 73.1989 681.497 72.7432C681.652 72.2829 681.875 71.8841 682.167 71.5469C682.463 71.2051 682.823 70.9408 683.247 70.7539C683.675 70.5625 684.158 70.4668 684.696 70.4668C685.238 70.4668 685.721 70.5625 686.145 70.7539C686.574 70.9408 686.936 71.2051 687.232 71.5469C687.528 71.8841 687.754 72.2829 687.909 72.7432C688.064 73.1989 688.141 73.6934 688.141 74.2266V74.3838C688.141 74.917 688.064 75.4115 687.909 75.8672C687.754 76.3229 687.528 76.7217 687.232 77.0635C686.936 77.4007 686.576 77.665 686.152 77.8564C685.728 78.0433 685.247 78.1367 684.71 78.1367C684.167 78.1367 683.682 78.0433 683.254 77.8564C682.83 77.665 682.47 77.4007 682.173 77.0635C681.877 76.7217 681.652 76.3229 681.497 75.8672C681.342 75.4115 681.264 74.917 681.264 74.3838ZM682.912 74.2266V74.3838C682.912 74.7165 682.946 75.0309 683.014 75.3271C683.083 75.6234 683.19 75.8831 683.336 76.1064C683.481 76.3298 683.668 76.5052 683.896 76.6328C684.124 76.7604 684.395 76.8242 684.71 76.8242C685.015 76.8242 685.279 76.7604 685.503 76.6328C685.73 76.5052 685.917 76.3298 686.063 76.1064C686.209 75.8831 686.316 75.6234 686.384 75.3271C686.457 75.0309 686.494 74.7165 686.494 74.3838V74.2266C686.494 73.8984 686.457 73.5885 686.384 73.2969C686.316 73.0007 686.207 72.7386 686.056 72.5107C685.91 72.2829 685.724 72.1051 685.496 71.9775C685.272 71.8454 685.006 71.7793 684.696 71.7793C684.386 71.7793 684.117 71.8454 683.889 71.9775C683.666 72.1051 683.481 72.2829 683.336 72.5107C683.19 72.7386 683.083 73.0007 683.014 73.2969C682.946 73.5885 682.912 73.8984 682.912 74.2266ZM691.256 72.1826V78H689.608V70.6035H691.16L691.256 72.1826ZM690.962 74.0283L690.429 74.0215C690.433 73.4974 690.506 73.0166 690.647 72.5791C690.793 72.1416 690.994 71.7656 691.249 71.4512C691.509 71.1367 691.819 70.8952 692.179 70.7266C692.539 70.5534 692.94 70.4668 693.382 70.4668C693.737 70.4668 694.059 70.5169 694.346 70.6172C694.637 70.7129 694.886 70.8701 695.091 71.0889C695.3 71.3076 695.46 71.5924 695.569 71.9434C695.679 72.2897 695.733 72.7158 695.733 73.2217V78H694.079V73.2148C694.079 72.8594 694.027 72.5791 693.922 72.374C693.822 72.1644 693.674 72.0163 693.478 71.9297C693.286 71.8385 693.047 71.793 692.76 71.793C692.477 71.793 692.224 71.8522 692.001 71.9707C691.778 72.0892 691.589 72.251 691.434 72.4561C691.283 72.6611 691.167 72.8981 691.085 73.167C691.003 73.4359 690.962 73.723 690.962 74.0283Z" fill="#6750A4"/>
<defs>
<filter id="filter0_dd_106_2259" x="452" y="50" width="111" height="48" filterUnits="userSpaceOnUse" color-interpolation-filters="sRGB">
<feFlood flood-opacity="0" result="BackgroundImageFix"/>
<feColorMatrix in="SourceAlpha" type="matrix" values="0 0 0 0 0 0 0 0 0 0 0 0 0 0 0 0 0 0 127 0" result="hardAlpha"/>
<feMorphology radius="1" operator="dilate" in="SourceAlpha" result="effect1_dropShadow_106_2259"/>
<feOffset dy="1"/>
<feGaussianBlur stdDeviation="1.5"/>
<feColorMatrix type="matrix" values="0 0 0 0 0.235294 0 0 0 0 0.25098 0 0 0 0 0.262745 0 0 0 0.15 0"/>
<feBlend mode="normal" in2="BackgroundImageFix" result="effect1_dropShadow_106_2259"/>
<feColorMatrix in="SourceAlpha" type="matrix" values="0 0 0 0 0 0 0 0 0 0 0 0 0 0 0 0 0 0 127 0" result="hardAlpha"/>
<feOffset dy="1"/>
<feGaussianBlur stdDeviation="1"/>
<feColorMatrix type="matrix" values="0 0 0 0 0.235294 0 0 0 0 0.25098 0 0 0 0 0.262745 0 0 0 0.3 0"/>
<feBlend mode="normal" in2="effect1_dropShadow_106_2259" result="effect2_dropShadow_106_2259"/>
<feBlend mode="normal" in="SourceGraphic" in2="effect2_dropShadow_106_2259" result="shape"/>
</filter>
</defs>
</svg>
